<?xml version="1.0" standalone="no"?>
<!DOCTYPE svg PUBLIC "-//W3C//DTD SVG 20010904//EN"
 "http://www.w3.org/TR/2001/REC-SVG-20010904/DTD/svg10.dtd">
<svg version="1.0" xmlns="http://www.w3.org/2000/svg"
 width="256.000000pt" height="256.000000pt" viewBox="0 0 256.000000 256.000000"
 preserveAspectRatio="xMidYMid meet">

<g transform="translate(0.000000,256.000000) scale(0.100000,-0.100000)"
fill="#000000" stroke="none">
<path d="M1100 2484 c-294 -56 -526 -179 -723 -383 -209 -217 -323 -481 -334
-776 -9 -216 25 -392 111 -572 177 -369 483 -609 893 -699 106 -24 358 -24
465 0 421 92 755 361 914 737 66 156 86 246 91 421 3 98 1 189 -7 240 -25 172
-117 395 -222 535 -137 182 -354 344 -575 427 -150 57 -215 68 -408 71 -99 2
-191 1 -205 -1z m442 -971 l3 -178 183 -3 182 -2 0 180 0 180 80 0 80 0 0
-440 0 -440 -80 0 -80 0 0 175 0 175 -185 0 -185 0 0 -175 0 -175 -80 0 -80 0
0 440 0 440 80 0 80 0 2 -177z m-540 149 c57 -19 125 -57 167 -92 l25 -21 -62
-62 c-54 -54 -64 -60 -80 -49 -130 94 -299 80 -385 -33 -66 -85 -72 -195 -17
-291 63 -111 218 -163 343 -115 25 10 27 15 27 66 l0 55 -75 0 -75 0 0 90 0
90 155 0 155 0 0 -245 0 -245 -178 0 c-251 0 -341 28 -445 139 -186 199 -143
532 87 666 112 66 248 83 358 47z"/>
</g>
</svg>
